<mxfile host="Electron" agent="Mozilla/5.0 (Windows NT 10.0; Win64; x64) AppleWebKit/537.36 (KHTML, like Gecko) draw.io/26.2.15 Chrome/134.0.6998.205 Electron/35.2.1 Safari/537.36" version="26.2.15">
  <diagram name="Seite-1" id="_SfXIhreuK3IcqrojPrP">
    <mxGraphModel dx="1828" dy="1074" grid="1" gridSize="10" guides="1" tooltips="1" connect="1" arrows="1" fold="1" page="1" pageScale="1" pageWidth="2336" pageHeight="1654" math="0" shadow="0">
      <root>
        <mxCell id="0" />
        <mxCell id="1" parent="0" />
        <mxCell id="YQYPdYtBVTQpXo6CQMSg-3" value="Browser" style="html=1;fontColor=#FF3333;fontStyle=1;align=left;verticalAlign=top;spacing=0;labelBorderColor=none;fillColor=none;dashed=1;strokeWidth=2;strokeColor=#FF3333;spacingLeft=4;spacingTop=-3;" parent="1" vertex="1">
          <mxGeometry x="130" y="80" width="710" height="440" as="geometry" />
        </mxCell>
        <mxCell id="YQYPdYtBVTQpXo6CQMSg-1" value="User (Browser)" style="rounded=0;whiteSpace=wrap;html=1;" parent="1" vertex="1">
          <mxGeometry x="310" y="150" width="480" height="300" as="geometry" />
        </mxCell>
        <mxCell id="YQYPdYtBVTQpXo6CQMSg-7" value="Backend" style="html=1;fontColor=#FF3333;fontStyle=1;align=left;verticalAlign=top;spacing=0;labelBorderColor=none;fillColor=none;dashed=1;strokeWidth=2;strokeColor=#FF3333;spacingLeft=4;spacingTop=-3;" parent="1" vertex="1">
          <mxGeometry x="920" y="80" width="520" height="440" as="geometry" />
        </mxCell>
        <mxCell id="YQYPdYtBVTQpXo6CQMSg-9" value="Datastore" style="html=1;fontColor=#FF3333;fontStyle=1;align=left;verticalAlign=top;spacing=0;labelBorderColor=none;fillColor=none;dashed=1;strokeWidth=2;strokeColor=#FF3333;spacingLeft=4;spacingTop=-3;" parent="1" vertex="1">
          <mxGeometry x="1520" y="360" width="290" height="160" as="geometry" />
        </mxCell>
        <mxCell id="YQYPdYtBVTQpXo6CQMSg-10" value="Database" style="shape=partialRectangle;whiteSpace=wrap;html=1;left=0;right=0;fillColor=none;" parent="1" vertex="1">
          <mxGeometry x="1605" y="410" width="120" height="60" as="geometry" />
        </mxCell>
        <mxCell id="YQYPdYtBVTQpXo6CQMSg-11" value="NewsletterController" style="ellipse;whiteSpace=wrap;html=1;aspect=fixed;" parent="1" vertex="1">
          <mxGeometry x="980" y="240" width="120" height="120" as="geometry" />
        </mxCell>
        <mxCell id="YQYPdYtBVTQpXo6CQMSg-12" value="SecurityConfig" style="ellipse;whiteSpace=wrap;html=1;aspect=fixed;" parent="1" vertex="1">
          <mxGeometry x="1140" y="100" width="120" height="120" as="geometry" />
        </mxCell>
        <mxCell id="YQYPdYtBVTQpXo6CQMSg-13" value="NewsletterRepository" style="ellipse;whiteSpace=wrap;html=1;aspect=fixed;" parent="1" vertex="1">
          <mxGeometry x="1260" y="240" width="120" height="120" as="geometry" />
        </mxCell>
        <mxCell id="YQYPdYtBVTQpXo6CQMSg-14" value="PasswordRepository" style="ellipse;whiteSpace=wrap;html=1;aspect=fixed;" parent="1" vertex="1">
          <mxGeometry x="1140" y="380" width="120" height="120" as="geometry" />
        </mxCell>
        <mxCell id="YQYPdYtBVTQpXo6CQMSg-18" value="" style="endArrow=classic;html=1;fontColor=#FF3333;rounded=0;entryX=0;entryY=0;entryDx=0;entryDy=0;startArrow=classic;startFill=1;exitX=1;exitY=0.5;exitDx=0;exitDy=0;" parent="1" source="e_HMtI7TrGYd_0DEB2x5-3" target="YQYPdYtBVTQpXo6CQMSg-11" edge="1">
          <mxGeometry width="50" height="50" relative="1" as="geometry">
            <mxPoint x="740" y="220" as="sourcePoint" />
            <mxPoint x="1070" y="590" as="targetPoint" />
          </mxGeometry>
        </mxCell>
        <mxCell id="YQYPdYtBVTQpXo6CQMSg-32" value="HTTP" style="edgeLabel;html=1;align=center;verticalAlign=middle;resizable=0;points=[];" parent="YQYPdYtBVTQpXo6CQMSg-18" vertex="1" connectable="0">
          <mxGeometry x="0.0019" relative="1" as="geometry">
            <mxPoint as="offset" />
          </mxGeometry>
        </mxCell>
        <mxCell id="YQYPdYtBVTQpXo6CQMSg-19" value="" style="endArrow=classic;html=1;fontColor=#FF3333;rounded=0;exitX=1;exitY=0.5;exitDx=0;exitDy=0;entryX=0;entryY=1;entryDx=0;entryDy=0;startArrow=classic;startFill=1;" parent="1" source="e_HMtI7TrGYd_0DEB2x5-2" target="YQYPdYtBVTQpXo6CQMSg-11" edge="1">
          <mxGeometry width="50" height="50" relative="1" as="geometry">
            <mxPoint x="739.9999999999927" y="379.9999999999998" as="sourcePoint" />
            <mxPoint x="1070" y="590" as="targetPoint" />
          </mxGeometry>
        </mxCell>
        <mxCell id="YQYPdYtBVTQpXo6CQMSg-33" value="HTTP" style="edgeLabel;html=1;align=center;verticalAlign=middle;resizable=0;points=[];" parent="YQYPdYtBVTQpXo6CQMSg-19" vertex="1" connectable="0">
          <mxGeometry x="-0.0862" y="-2" relative="1" as="geometry">
            <mxPoint as="offset" />
          </mxGeometry>
        </mxCell>
        <mxCell id="YQYPdYtBVTQpXo6CQMSg-20" value="" style="endArrow=classic;html=1;fontColor=#FF3333;rounded=0;exitX=1;exitY=0;exitDx=0;exitDy=0;entryX=0;entryY=1;entryDx=0;entryDy=0;" parent="1" source="YQYPdYtBVTQpXo6CQMSg-11" target="YQYPdYtBVTQpXo6CQMSg-12" edge="1">
          <mxGeometry width="50" height="50" relative="1" as="geometry">
            <mxPoint x="1020" y="640" as="sourcePoint" />
            <mxPoint x="1070" y="590" as="targetPoint" />
          </mxGeometry>
        </mxCell>
        <mxCell id="YQYPdYtBVTQpXo6CQMSg-35" value="Validation" style="edgeLabel;html=1;align=center;verticalAlign=middle;resizable=0;points=[];" parent="YQYPdYtBVTQpXo6CQMSg-20" vertex="1" connectable="0">
          <mxGeometry x="-0.2538" y="2" relative="1" as="geometry">
            <mxPoint as="offset" />
          </mxGeometry>
        </mxCell>
        <mxCell id="YQYPdYtBVTQpXo6CQMSg-21" value="" style="endArrow=classic;html=1;fontColor=#FF3333;rounded=0;exitX=0;exitY=0.5;exitDx=0;exitDy=0;entryX=0.5;entryY=0;entryDx=0;entryDy=0;" parent="1" source="YQYPdYtBVTQpXo6CQMSg-12" target="YQYPdYtBVTQpXo6CQMSg-11" edge="1">
          <mxGeometry width="50" height="50" relative="1" as="geometry">
            <mxPoint x="1020" y="640" as="sourcePoint" />
            <mxPoint x="1070" y="590" as="targetPoint" />
          </mxGeometry>
        </mxCell>
        <mxCell id="YQYPdYtBVTQpXo6CQMSg-36" value="Controls Access" style="edgeLabel;html=1;align=center;verticalAlign=middle;resizable=0;points=[];" parent="YQYPdYtBVTQpXo6CQMSg-21" vertex="1" connectable="0">
          <mxGeometry x="0.0561" relative="1" as="geometry">
            <mxPoint as="offset" />
          </mxGeometry>
        </mxCell>
        <mxCell id="YQYPdYtBVTQpXo6CQMSg-22" value="" style="endArrow=classic;html=1;fontColor=#FF3333;rounded=0;exitX=1;exitY=1;exitDx=0;exitDy=0;entryX=0;entryY=0;entryDx=0;entryDy=0;" parent="1" source="YQYPdYtBVTQpXo6CQMSg-11" target="YQYPdYtBVTQpXo6CQMSg-14" edge="1">
          <mxGeometry width="50" height="50" relative="1" as="geometry">
            <mxPoint x="1030" y="640" as="sourcePoint" />
            <mxPoint x="1080" y="590" as="targetPoint" />
          </mxGeometry>
        </mxCell>
        <mxCell id="YQYPdYtBVTQpXo6CQMSg-23" value="" style="endArrow=classic;html=1;fontColor=#FF3333;rounded=0;exitX=1;exitY=0.5;exitDx=0;exitDy=0;entryX=0;entryY=0.5;entryDx=0;entryDy=0;" parent="1" source="YQYPdYtBVTQpXo6CQMSg-11" target="YQYPdYtBVTQpXo6CQMSg-13" edge="1">
          <mxGeometry width="50" height="50" relative="1" as="geometry">
            <mxPoint x="1030" y="640" as="sourcePoint" />
            <mxPoint x="1080" y="590" as="targetPoint" />
          </mxGeometry>
        </mxCell>
        <mxCell id="YQYPdYtBVTQpXo6CQMSg-24" value="" style="endArrow=classic;html=1;fontColor=#FF3333;rounded=0;exitX=1;exitY=0.5;exitDx=0;exitDy=0;entryX=0;entryY=0.5;entryDx=0;entryDy=0;" parent="1" source="YQYPdYtBVTQpXo6CQMSg-14" target="YQYPdYtBVTQpXo6CQMSg-10" edge="1">
          <mxGeometry width="50" height="50" relative="1" as="geometry">
            <mxPoint x="1030" y="640" as="sourcePoint" />
            <mxPoint x="1080" y="590" as="targetPoint" />
          </mxGeometry>
        </mxCell>
        <mxCell id="YQYPdYtBVTQpXo6CQMSg-38" value="persists" style="edgeLabel;html=1;align=center;verticalAlign=middle;resizable=0;points=[];" parent="YQYPdYtBVTQpXo6CQMSg-24" vertex="1" connectable="0">
          <mxGeometry x="-0.2638" relative="1" as="geometry">
            <mxPoint as="offset" />
          </mxGeometry>
        </mxCell>
        <mxCell id="YQYPdYtBVTQpXo6CQMSg-25" value="" style="endArrow=classic;html=1;fontColor=#FF3333;rounded=0;exitX=1;exitY=0.5;exitDx=0;exitDy=0;entryX=0;entryY=0.5;entryDx=0;entryDy=0;" parent="1" source="YQYPdYtBVTQpXo6CQMSg-13" target="YQYPdYtBVTQpXo6CQMSg-10" edge="1">
          <mxGeometry width="50" height="50" relative="1" as="geometry">
            <mxPoint x="1030" y="640" as="sourcePoint" />
            <mxPoint x="1080" y="590" as="targetPoint" />
          </mxGeometry>
        </mxCell>
        <mxCell id="YQYPdYtBVTQpXo6CQMSg-37" value="persists" style="edgeLabel;html=1;align=center;verticalAlign=middle;resizable=0;points=[];" parent="YQYPdYtBVTQpXo6CQMSg-25" vertex="1" connectable="0">
          <mxGeometry x="-0.2376" relative="1" as="geometry">
            <mxPoint as="offset" />
          </mxGeometry>
        </mxCell>
        <UserObject label="&lt;b&gt;TA01&lt;/b&gt;" placeholders="1" name="Variable" id="YQYPdYtBVTQpXo6CQMSg-26">
          <mxCell style="text;html=1;strokeColor=#b85450;fillColor=#f8cecc;align=center;verticalAlign=middle;whiteSpace=wrap;overflow=hidden;" parent="1" vertex="1">
            <mxGeometry x="770" y="100" width="40" height="20" as="geometry" />
          </mxCell>
        </UserObject>
        <UserObject label="&lt;b&gt;A02&lt;/b&gt;" placeholders="1" name="Variable" id="YQYPdYtBVTQpXo6CQMSg-39">
          <mxCell style="text;html=1;strokeColor=#d6b656;fillColor=#fff2cc;align=center;verticalAlign=middle;whiteSpace=wrap;overflow=hidden;" parent="1" vertex="1">
            <mxGeometry x="930" y="360" width="40" height="20" as="geometry" />
          </mxCell>
        </UserObject>
        <mxCell id="YQYPdYtBVTQpXo6CQMSg-44" value="&lt;table border=&quot;1&quot; width=&quot;100%&quot; style=&quot;width: 100% ; height: 100% ; border-collapse: collapse ; border: 1px solid #d6b656&quot;&gt;&lt;tbody&gt;&lt;tr style=&quot;background-color: #fff2cc ; color: #000000 ; border: 1px solid #d6b656&quot;&gt;&lt;th align=&quot;center&quot; colspan=&quot;2&quot;&gt;Assets&lt;/th&gt;&lt;/tr&gt;&lt;tr style=&quot;background-color: #fff2cc ; color: #000000 ; border: 1px solid #d6b656&quot;&gt;&lt;th align=&quot;left&quot; style=&quot;border: 1px solid #d6b656&quot;&gt;ID&lt;/th&gt;&lt;th align=&quot;left&quot; style=&quot;border: 1px solid #d6b656&quot;&gt;Description&lt;/th&gt;&lt;/tr&gt;&lt;tr&gt;&lt;td style=&quot;border: 1px solid #d6b656&quot;&gt;A01&lt;/td&gt;&lt;td style=&quot;border: 1px solid #d6b656&quot;&gt;Nutzerdaten&lt;/td&gt;&lt;/tr&gt;&lt;tr&gt;&lt;td&gt;A02&lt;/td&gt;&lt;td&gt;Admin-Credentials&lt;/td&gt;&lt;/tr&gt;&lt;tr&gt;&lt;td&gt;&lt;br&gt;&lt;/td&gt;&lt;td&gt;&lt;br&gt;&lt;/td&gt;&lt;/tr&gt;&lt;tr&gt;&lt;td&gt;&lt;br&gt;&lt;/td&gt;&lt;td&gt;&lt;br&gt;&lt;/td&gt;&lt;/tr&gt;&lt;tr&gt;&lt;td&gt;&lt;br&gt;&lt;/td&gt;&lt;td&gt;&lt;br&gt;&lt;/td&gt;&lt;/tr&gt;&lt;/tbody&gt;&lt;/table&gt;" style="text;html=1;strokeColor=#c0c0c0;fillColor=#ffffff;overflow=fill;rounded=0;shadow=1;labelBackgroundColor=#ffffff;fontColor=#000000;align=left;" parent="1" vertex="1">
          <mxGeometry x="120" y="560" width="440" height="280" as="geometry" />
        </mxCell>
        <mxCell id="YQYPdYtBVTQpXo6CQMSg-45" value="&lt;table border=&quot;1&quot; width=&quot;100%&quot; style=&quot;width: 100% ; height: 100% ; border-collapse: collapse ; border: 1px solid #b85450&quot;&gt;&lt;tbody&gt;&lt;tr style=&quot;background-color: #f8cecc ; color: #000000 ; border: 1px solid #b85450&quot;&gt;&lt;th align=&quot;center&quot; colspan=&quot;2&quot;&gt;Threat Actors&lt;/th&gt;&lt;/tr&gt;&lt;tr style=&quot;background-color: #f8cecc ; color: #000000 ; border: 1px solid #b85450&quot;&gt;&lt;th align=&quot;left&quot; style=&quot;border: 1px solid #b85450&quot;&gt;ID&lt;/th&gt;&lt;th align=&quot;left&quot; style=&quot;border: 1px solid #b85450&quot;&gt;Description&lt;/th&gt;&lt;/tr&gt;&lt;tr&gt;&lt;td style=&quot;border: 1px solid #b85450&quot;&gt;TA01&lt;/td&gt;&lt;td style=&quot;border: 1px solid #b85450&quot;&gt;Attacker with access to communication&lt;/td&gt;&lt;/tr&gt;&lt;tr&gt;&lt;td&gt;&lt;br&gt;&lt;/td&gt;&lt;td&gt;&lt;br&gt;&lt;/td&gt;&lt;/tr&gt;&lt;tr&gt;&lt;td&gt;&lt;br&gt;&lt;/td&gt;&lt;td&gt;&lt;br&gt;&lt;/td&gt;&lt;/tr&gt;&lt;tr&gt;&lt;td&gt;&lt;br&gt;&lt;/td&gt;&lt;td&gt;&lt;br&gt;&lt;/td&gt;&lt;/tr&gt;&lt;tr&gt;&lt;td&gt;&lt;br&gt;&lt;/td&gt;&lt;td&gt;&lt;br&gt;&lt;/td&gt;&lt;/tr&gt;&lt;/tbody&gt;&lt;/table&gt;" style="text;html=1;strokeColor=#c0c0c0;fillColor=#ffffff;overflow=fill;rounded=0;shadow=1;labelBackgroundColor=#ffffff;fontColor=#000000;align=left;" parent="1" vertex="1">
          <mxGeometry x="600" y="560" width="440" height="280" as="geometry" />
        </mxCell>
        <mxCell id="YQYPdYtBVTQpXo6CQMSg-46" value="&lt;table border=&quot;1&quot; width=&quot;100%&quot; style=&quot;width: 100% ; height: 100% ; border-collapse: collapse ; border: 1px solid #82b366&quot;&gt;&lt;tbody&gt;&lt;tr style=&quot;background-color: #d5e8d4 ; color: #000000 ; border: 1px solid #82b366&quot;&gt;&lt;th align=&quot;center&quot; colspan=&quot;2&quot;&gt;Security Controls&lt;/th&gt;&lt;/tr&gt;&lt;tr style=&quot;background-color: #d5e8d4 ; color: #000000 ; border: 1px solid #82b366&quot;&gt;&lt;th align=&quot;left&quot; style=&quot;border: 1px solid #82b366&quot;&gt;ID&lt;/th&gt;&lt;th align=&quot;left&quot; style=&quot;border: 1px solid #82b366&quot;&gt;Description&lt;/th&gt;&lt;/tr&gt;&lt;tr&gt;&lt;td style=&quot;border: 1px solid #82b366&quot;&gt;C01&lt;/td&gt;&lt;td style=&quot;border: 1px solid #82b366&quot;&gt;&lt;br&gt;&lt;/td&gt;&lt;/tr&gt;&lt;tr&gt;&lt;td&gt;&lt;br&gt;&lt;/td&gt;&lt;td&gt;&lt;br&gt;&lt;/td&gt;&lt;/tr&gt;&lt;tr&gt;&lt;td&gt;&lt;br&gt;&lt;/td&gt;&lt;td&gt;&lt;br&gt;&lt;/td&gt;&lt;/tr&gt;&lt;tr&gt;&lt;td&gt;&lt;br&gt;&lt;/td&gt;&lt;td&gt;&lt;br&gt;&lt;/td&gt;&lt;/tr&gt;&lt;tr&gt;&lt;td&gt;&lt;br&gt;&lt;/td&gt;&lt;td&gt;&lt;br&gt;&lt;/td&gt;&lt;/tr&gt;&lt;/tbody&gt;&lt;/table&gt;" style="text;html=1;strokeColor=#c0c0c0;fillColor=#ffffff;overflow=fill;rounded=0;shadow=1;labelBackgroundColor=#ffffff;fontColor=#000000;align=left;" parent="1" vertex="1">
          <mxGeometry x="1080" y="560" width="440" height="280" as="geometry" />
        </mxCell>
        <UserObject label="&lt;b&gt;A02&lt;/b&gt;" placeholders="1" name="Variable" id="YQYPdYtBVTQpXo6CQMSg-47">
          <mxCell style="text;html=1;strokeColor=#d6b656;fillColor=#fff2cc;align=center;verticalAlign=middle;whiteSpace=wrap;overflow=hidden;" parent="1" vertex="1">
            <mxGeometry x="1605" y="480" width="40" height="20" as="geometry" />
          </mxCell>
        </UserObject>
        <UserObject label="&lt;b&gt;A01&lt;/b&gt;" placeholders="1" name="Variable" id="YQYPdYtBVTQpXo6CQMSg-49">
          <mxCell style="text;html=1;strokeColor=#d6b656;fillColor=#fff2cc;align=center;verticalAlign=middle;whiteSpace=wrap;overflow=hidden;" parent="1" vertex="1">
            <mxGeometry x="930" y="220" width="40" height="20" as="geometry" />
          </mxCell>
        </UserObject>
        <mxCell id="e_HMtI7TrGYd_0DEB2x5-2" value="Admin.vue" style="rounded=0;whiteSpace=wrap;html=1;" vertex="1" parent="1">
          <mxGeometry x="610" y="350" width="120" height="60" as="geometry" />
        </mxCell>
        <mxCell id="e_HMtI7TrGYd_0DEB2x5-3" value="Subscribe.vue" style="rounded=0;whiteSpace=wrap;html=1;" vertex="1" parent="1">
          <mxGeometry x="610" y="190" width="120" height="60" as="geometry" />
        </mxCell>
      </root>
    </mxGraphModel>
  </diagram>
</mxfile>
